<?xml version="1.0" encoding="UTF-8"?>
<!DOCTYPE svg PUBLIC "-//W3C//DTD SVG 1.1//EN" "http://www.w3.org/Graphics/SVG/1.1/DTD/svg11.dtd">
<svg xmlns="http://www.w3.org/2000/svg" version="1.1" width="3264px" height="647px" style="shape-rendering:geometricPrecision; text-rendering:geometricPrecision; image-rendering:optimizeQuality; fill-rule:evenodd; clip-rule:evenodd" xmlns:xlink="http://www.w3.org/1999/xlink">
<g><path style="opacity:0.99" fill="#009a4e" d="M 525.5,146.5 C 605.064,147.637 662.064,183.804 696.5,255C 695.892,255.87 695.059,256.37 694,256.5C 663.148,251.891 632.315,251.058 601.5,254C 529.02,266.811 475.52,305.645 441,370.5C 431.697,389.096 423.53,408.096 416.5,427.5C 429.57,432.916 442.737,438.25 456,443.5C 463.56,424.057 471.893,405.057 481,386.5C 503.612,345.208 537.112,317.042 581.5,302C 599.823,297.217 618.49,295.051 637.5,295.5C 660.985,295.534 684.319,297.367 707.5,301C 711.099,316.384 711.433,331.884 708.5,347.5C 693.237,344.343 677.903,341.51 662.5,339C 631.197,334.852 602.863,341.852 577.5,360C 562.219,373.952 551.386,390.786 545,410.5C 537.427,441.017 533.927,472.017 534.5,503.5C 457.481,501.597 401.981,466.263 368,397.5C 350.554,353.793 348.887,309.459 363,264.5C 393.003,191.636 447.17,152.302 525.5,146.5 Z"/></g>
<g><path style="opacity:0.958" fill="#000000" d="M 1109.5,209.5 C 1121.12,207.911 1130.96,211.244 1139,219.5C 1146,235.999 1140.83,246.499 1123.5,251C 1114.86,252.274 1106.53,251.274 1098.5,248C 1092.05,244.025 1088.71,238.192 1088.5,230.5C 1090.55,218.451 1097.55,211.451 1109.5,209.5 Z"/></g>
<g><path style="opacity:0.969" fill="#7e7e7e" d="M 2054.5,211.5 C 2077.78,209.388 2099.45,214.222 2119.5,226C 2137.33,238.676 2148,255.842 2151.5,277.5C 2140.83,277.667 2130.16,277.5 2119.5,277C 2108.2,248.507 2087.2,236.174 2056.5,240C 2036.35,244.151 2022.18,255.651 2014,274.5C 2004.83,302.071 2005.5,329.405 2016,356.5C 2033.54,386.019 2058.71,395.186 2091.5,384C 2112.32,374.648 2122.32,358.482 2121.5,335.5C 2104.83,335.667 2088.16,335.5 2071.5,335C 2070.17,326.667 2070.17,318.333 2071.5,310C 2098.83,309.5 2126.16,309.333 2153.5,309.5C 2153.68,321.861 2153.18,334.194 2152,346.5C 2145.33,389.61 2120.16,412.777 2076.5,416C 2017.61,417.453 1984.11,388.953 1976,330.5C 1972.2,302.757 1976.87,276.424 1990,251.5C 2005.28,228.109 2026.78,214.776 2054.5,211.5 Z"/></g>
<g><path style="opacity:0.979" fill="#000000" d="M 1222.5,214.5 C 1235.52,214.289 1248.52,214.622 1261.5,215.5C 1261.67,226.172 1261.5,236.839 1261,247.5C 1254.58,246.357 1248.08,246.19 1241.5,247C 1237.32,248.002 1234.49,250.502 1233,254.5C 1232.5,259.489 1232.33,264.489 1232.5,269.5C 1242.17,269.5 1251.83,269.5 1261.5,269.5C 1261.5,281.5 1261.5,293.5 1261.5,305.5C 1252.17,305.5 1242.83,305.5 1233.5,305.5C 1233.5,341.833 1233.5,378.167 1233.5,414.5C 1217.83,414.5 1202.17,414.5 1186.5,414.5C 1186.5,378.167 1186.5,341.833 1186.5,305.5C 1178.83,305.5 1171.17,305.5 1163.5,305.5C 1163.5,293.5 1163.5,281.5 1163.5,269.5C 1171.17,269.5 1178.83,269.5 1186.5,269.5C 1186.33,261.16 1186.5,252.827 1187,244.5C 1188.32,235.011 1192.82,227.511 1200.5,222C 1207.58,218.364 1214.91,215.864 1222.5,214.5 Z"/></g>
<g><path style="opacity:0.981" fill="#000000" d="M 779.5,224.5 C 812.168,224.333 844.835,224.5 877.5,225C 896.598,225.63 911.764,233.463 923,248.5C 934.846,274.648 928.679,295.148 904.5,310C 900.858,311.27 897.192,312.436 893.5,313.5C 928.691,320.864 942.524,342.198 935,377.5C 925.536,399.601 908.703,411.768 884.5,414C 849.502,414.5 814.502,414.667 779.5,414.5C 779.5,351.167 779.5,287.833 779.5,224.5 Z M 828.5,259.5 C 839.505,259.333 850.505,259.5 861.5,260C 878.929,264.018 884.429,274.518 878,291.5C 873.724,296.772 868.224,299.939 861.5,301C 850.505,301.5 839.505,301.667 828.5,301.5C 828.5,287.5 828.5,273.5 828.5,259.5 Z M 828.5,331.5 C 839.172,331.333 849.839,331.5 860.5,332C 883.335,333.821 891.501,345.655 885,367.5C 879.416,375.711 871.583,379.877 861.5,380C 850.505,380.5 839.505,380.667 828.5,380.5C 828.5,364.167 828.5,347.833 828.5,331.5 Z"/></g>
<g><path style="opacity:0.97" fill="#7e7e7e" d="M 2321.5,261.5 C 2373.6,260.594 2400.26,286.26 2401.5,338.5C 2402.76,366.626 2392.09,388.792 2369.5,405C 2347.1,416.076 2324.1,417.409 2300.5,409C 2278.97,398.453 2266.14,381.287 2262,357.5C 2256.63,330.37 2261.96,305.703 2278,283.5C 2290.07,271.217 2304.57,263.884 2321.5,261.5 Z M 2323.5,287.5 C 2350.93,286.089 2366.43,299.089 2370,326.5C 2372.4,343.073 2369.74,358.74 2362,373.5C 2349.28,388.882 2333.45,393.048 2314.5,386C 2300.51,377.545 2293.01,365.045 2292,348.5C 2289.65,332.568 2292.32,317.568 2300,303.5C 2305.84,295.14 2313.68,289.807 2323.5,287.5 Z"/></g>
<g><path style="opacity:0.978" fill="#7e7e7e" d="M 2235.5,262.5 C 2241.76,262.19 2247.92,262.524 2254,263.5C 2254.5,272.827 2254.67,282.161 2254.5,291.5C 2240.23,287.504 2227.73,290.504 2217,300.5C 2213,305.843 2210.66,311.843 2210,318.5C 2209.5,349.832 2209.33,381.165 2209.5,412.5C 2199.5,412.5 2189.5,412.5 2179.5,412.5C 2179.5,362.833 2179.5,313.167 2179.5,263.5C 2189.17,263.5 2198.83,263.5 2208.5,263.5C 2208.33,270.841 2208.5,278.174 2209,285.5C 2213.72,272.94 2222.55,265.274 2235.5,262.5 Z"/></g>
<g><path style="opacity:0.97" fill="#7e7e7e" d="M 2650.5,262.5 C 2686.7,259.217 2710.2,274.884 2721,309.5C 2728.32,337.594 2724.99,364.26 2711,389.5C 2692.45,412.346 2668.95,419.513 2640.5,411C 2629.58,406.749 2621.08,399.582 2615,389.5C 2615.25,411.865 2615.25,435.532 2615,460.5C 2604.92,461.486 2594.75,461.819 2584.5,461.5C 2584.5,395.5 2584.5,329.5 2584.5,263.5C 2594.17,263.5 2603.83,263.5 2613.5,263.5C 2613.33,271.507 2613.5,279.507 2614,287.5C 2622.55,273.816 2634.71,265.482 2650.5,262.5 Z M 2646.5,288.5 C 2668.24,286.617 2682.74,295.95 2690,316.5C 2696.38,337.489 2693.72,357.155 2682,375.5C 2663.33,392.833 2644.67,392.833 2626,375.5C 2612.42,353.603 2611.09,330.936 2622,307.5C 2627.72,297.902 2635.89,291.569 2646.5,288.5 Z"/></g>
<g><path style="opacity:0.979" fill="#7e7e7e" d="M 2423.5,263.5 C 2433.83,263.5 2444.17,263.5 2454.5,263.5C 2454.03,297.541 2454.53,331.541 2456,365.5C 2460.79,381.238 2471.46,388.905 2488,388.5C 2509.07,386.767 2521.07,375.433 2524,354.5C 2524.5,324.168 2524.67,293.835 2524.5,263.5C 2534.5,263.5 2544.5,263.5 2554.5,263.5C 2554.5,313.167 2554.5,362.833 2554.5,412.5C 2544.83,412.5 2535.17,412.5 2525.5,412.5C 2525.67,404.826 2525.5,397.159 2525,389.5C 2516.39,404.076 2503.56,412.243 2486.5,414C 2466.77,417.032 2449.93,411.532 2436,397.5C 2430.43,390.029 2426.77,381.696 2425,372.5C 2423.58,336.187 2423.08,299.854 2423.5,263.5 Z"/></g>
<g><path style="opacity:0.971" fill="#000000" d="M 1340.5,264.5 C 1360.49,262.438 1379.15,266.272 1396.5,276C 1413.72,289.932 1422.88,308.098 1424,330.5C 1424.5,337.826 1424.67,345.159 1424.5,352.5C 1391.83,352.5 1359.17,352.5 1326.5,352.5C 1326.11,372.419 1335.77,383.086 1355.5,384.5C 1365.85,384.848 1373.85,380.848 1379.5,372.5C 1394.17,371.167 1408.83,371.167 1423.5,372.5C 1419.17,391.668 1407.83,404.835 1389.5,412C 1361.19,422.179 1333.86,420.179 1307.5,406C 1290.62,393.084 1281.46,375.918 1280,354.5C 1277.02,331.389 1281.69,310.056 1294,290.5C 1306.08,275.708 1321.58,267.041 1340.5,264.5 Z M 1345.5,298.5 C 1365.33,296.004 1376.33,304.67 1378.5,324.5C 1361.17,324.5 1343.83,324.5 1326.5,324.5C 1327.49,311.857 1333.82,303.19 1345.5,298.5 Z"/></g>
<g><path style="opacity:0.972" fill="#000000" d="M 1506.5,264.5 C 1525.68,262.527 1543.68,266.027 1560.5,275C 1574.11,284.029 1582.94,296.529 1587,312.5C 1589.7,325.693 1590.87,339.026 1590.5,352.5C 1557.5,352.5 1524.5,352.5 1491.5,352.5C 1493.24,377.871 1506.58,388.038 1531.5,383C 1537.7,381.238 1542.37,377.571 1545.5,372C 1560.18,371.167 1574.84,371.334 1589.5,372.5C 1581.62,398.204 1564.29,413.037 1537.5,417C 1515.33,420.772 1494.33,417.438 1474.5,407C 1457.63,394.428 1448.13,377.595 1446,356.5C 1442.71,333.218 1447.04,311.551 1459,291.5C 1471.23,276.134 1487.07,267.134 1506.5,264.5 Z M 1511.5,298.5 C 1531.11,295.962 1542.11,304.462 1544.5,324C 1527.17,324.5 1509.84,324.667 1492.5,324.5C 1493.49,311.819 1499.83,303.152 1511.5,298.5 Z"/></g>
<g><path style="opacity:0.972" fill="#000000" d="M 1666.5,264.5 C 1685.93,262.632 1704.59,265.466 1722.5,273C 1736.64,281.428 1743.97,293.928 1744.5,310.5C 1730.16,310.667 1715.83,310.5 1701.5,310C 1697.76,300.366 1690.6,295.866 1680,296.5C 1674.94,296.778 1670.11,297.945 1665.5,300C 1658.01,307.765 1659.01,314.099 1668.5,319C 1686.59,322.952 1704.59,327.285 1722.5,332C 1746.27,342.739 1753.77,360.572 1745,385.5C 1739.76,397.71 1730.92,406.21 1718.5,411C 1689.42,421.701 1660.75,420.701 1632.5,408C 1619.73,399.635 1612.73,387.801 1611.5,372.5C 1626.85,372.167 1642.18,372.501 1657.5,373.5C 1659.3,378.468 1662.64,381.968 1667.5,384C 1676.27,386.865 1684.94,386.865 1693.5,384C 1702.25,379.443 1703.59,373.443 1697.5,366C 1679.59,361.084 1661.59,356.417 1643.5,352C 1617.01,339.889 1608.84,320.055 1619,292.5C 1623.89,283.279 1631.05,276.445 1640.5,272C 1649.02,268.541 1657.69,266.041 1666.5,264.5 Z"/></g>
<g><path style="opacity:0.963" fill="#000000" d="M 1044.5,265.5 C 1052.27,265.195 1059.94,265.862 1067.5,267.5C 1067.67,281.171 1067.5,294.837 1067,308.5C 1052.61,303.655 1038.78,304.822 1025.5,312C 1019.91,316.591 1016.41,322.424 1015,329.5C 1014.5,357.831 1014.33,386.165 1014.5,414.5C 998.5,414.5 982.5,414.5 966.5,414.5C 966.5,365.5 966.5,316.5 966.5,267.5C 981.837,267.333 997.17,267.5 1012.5,268C 1013.32,275.754 1013.82,283.588 1014,291.5C 1019.15,276.844 1029.32,268.177 1044.5,265.5 Z"/></g>
<g><path style="opacity:0.964" fill="#000000" d="M 1091.5,267.5 C 1107.5,267.5 1123.5,267.5 1139.5,267.5C 1139.5,316.5 1139.5,365.5 1139.5,414.5C 1123.5,414.5 1107.5,414.5 1091.5,414.5C 1091.5,365.5 1091.5,316.5 1091.5,267.5 Z"/></g>
<g><path style="opacity:0.971" fill="#000000" d="M 1761.5,267.5 C 1778.85,267.167 1796.18,267.5 1813.5,268.5C 1822.04,304.31 1831.04,339.977 1840.5,375.5C 1849.65,339.881 1858.65,304.215 1867.5,268.5C 1884.17,267.167 1900.83,267.167 1917.5,268.5C 1901.1,319.526 1884.6,370.526 1868,421.5C 1857.26,451.236 1836.1,466.736 1804.5,468C 1795.17,468.5 1785.84,468.666 1776.5,468.5C 1776.5,456.5 1776.5,444.5 1776.5,432.5C 1784.63,432.848 1792.63,432.015 1800.5,430C 1806.82,427.353 1810.49,422.686 1811.5,416C 1793.93,366.798 1777.27,317.298 1761.5,267.5 Z"/></g>
<g><path style="opacity:0.984" fill="#009a4f" d="M 631.5,381.5 C 640.839,381.334 650.173,381.5 659.5,382C 672.254,383.868 684.92,386.035 697.5,388.5C 681.887,429.961 654.553,461.461 615.5,483C 603.175,488.747 590.509,493.58 577.5,497.5C 577.627,475.368 579.46,454.034 583,433.5C 586.157,422.196 590.657,411.53 596.5,401.5C 605.859,390.721 617.525,384.054 631.5,381.5 Z"/></g>
</svg>
